<svg width="864" height="1008" xmlns="http://www.w3.org/2000/svg" xmlns:xlink="http://www.w3.org/1999/xlink" overflow="hidden"><defs><clipPath id="clip0"><rect x="0" y="0" width="864" height="1008"/></clipPath></defs><g clip-path="url(#clip0)"><rect x="0" y="0" width="864" height="1008" fill="#FFFFFF"/><rect x="215" y="926" width="100" height="31" fill="#FBE5D6"/><text font-family="Calibri,Calibri_MSFontService,sans-serif" font-style="italic" font-weight="400" font-size="17" transform="translate(224.572 947)">Local repo</text><rect x="333" y="926" width="187" height="31" fill="#DAE3F3"/><text font-family="Calibri,Calibri_MSFontService,sans-serif" font-style="italic" font-weight="400" font-size="17" transform="translate(342.158 947)">Local working directory</text><rect x="534" y="927" width="115" height="30" fill="#FFF2CC"/><text font-family="Calibri,Calibri_MSFontService,sans-serif" font-style="italic" font-weight="400" font-size="17" transform="translate(543.368 948)">GitHub repo<tspan font-style="normal" font-weight="700" font-size="17" x="-318.796" y="-36">Legend</tspan></text><rect x="139" y="82" width="224" height="30" fill="#E2F0D9"/><text font-family="Calibri,Calibri_MSFontService,sans-serif" font-weight="400" font-size="17" transform="translate(208.001 102)">Start project</text><rect x="144" y="170" width="214" height="31" fill="#FBE5D6"/><text font-family="Calibri,Calibri_MSFontService,sans-serif" font-weight="400" font-size="17" transform="translate(175.778 191)">Pick a task to work on</text><rect x="142" y="253" width="219" height="51" fill="#DAE3F3"/><text font-family="Calibri,Calibri_MSFontService,sans-serif" font-weight="400" font-size="17" transform="translate(158.674 273)">Write some code to do the <tspan font-size="17" x="78.3533" y="21">task</tspan></text><rect x="139" y="350" width="224" height="51" fill="#FBE5D6"/><text font-family="Calibri,Calibri_MSFontService,sans-serif" font-weight="400" font-size="17" transform="translate(162.871 371)">Compose a “snapshot” of <tspan font-size="17" x="71.46" y="21">code</tspan></text><rect x="139" y="440" width="224" height="51" fill="#FBE5D6"/><text font-family="Calibri,Calibri_MSFontService,sans-serif" font-weight="400" font-size="17" transform="translate(151.841 461)">Take a “snapshot” to keep as <tspan font-size="17" x="8.27333" y="21">permanent project history</tspan></text><rect x="139" y="571" width="224" height="30" fill="#FFF2CC"/><text font-family="Calibri,Calibri_MSFontService,sans-serif" font-weight="400" font-size="17" transform="translate(168.408 592)">Sync snapshots to cloud</text><rect x="139" y="660" width="224" height="52" fill="#FBE5D6"/><text font-family="Calibri,Calibri_MSFontService,sans-serif" font-weight="400" font-size="17" transform="translate(149.448 681)">Incorporate finished task into <tspan font-size="17" x="21.6" y="21">main version of project</tspan></text><rect x="139" y="791" width="224" height="31" fill="#FFF2CC"/><text font-family="Calibri,Calibri_MSFontService,sans-serif" font-weight="400" font-size="17" transform="translate(158.761 812)">Sync main version to cloud</text><path d="M0.333333-2.39947e-06 0.333705 51.6723-0.332961 51.6723-0.333333 2.39947e-06ZM4.00036 50.339 0.000419947 58.339-3.99964 50.339Z" transform="matrix(-1 0 0 1 251.5 112.5)"/><path d="M0.333333-2.02975e-06 0.333608 45.0574-0.333059 45.0574-0.333333 2.02975e-06ZM4.00027 43.7241 0.000314961 51.7241-3.99973 43.7241Z" transform="matrix(-1 0 0 1 251.5 201.5)"/><path d="M251.833 304.5 251.834 344.431 251.167 344.431 251.167 304.5ZM255.5 343.097 251.5 351.097 247.5 343.097Z"/><path d="M251.833 401.5 251.833 433.235 251.167 433.235 251.167 401.5ZM255.5 431.902 251.5 439.902 247.5 431.902Z"/><path d="M251.833 491.5 251.833 564.704 251.167 564.704 251.167 491.5ZM255.5 563.37 251.5 571.37 247.5 563.37Z"/><path d="M0.333333-5.91853e-07 0.333426 52.4623-0.33324 52.4623-0.333333 5.91853e-07ZM4.00009 51.1289 0.000104987 59.1289-3.99991 51.1289Z" transform="matrix(-1 0 0 1 251.5 601.5)"/><path d="M251.833 712.5 251.834 785.703 251.167 785.703 251.167 712.5ZM255.5 784.37 251.5 792.37 247.5 784.37Z"/><path d="M0 0.333333-24 0.333333-23.6667 0-23.6667 307.95-24 307.616-4.4105 307.616-4.4105 308.283-24.3333 308.283-24.3333-0.333333 0-0.333333ZM-5.74383 303.95 2.25617 307.95-5.74383 311.95Z" transform="matrix(1 -1.22465e-16 -1.22465e-16 -1 139.5 586.45)"/><path d="M0-0.333333 24.3333-0.333333 24.3333 89.8833 8 89.8833 8 89.2166 24 89.2166 23.6667 89.5499 23.6667 0 24 0.333333 0 0.333333ZM9.33333 93.5499 1.33333 89.5499 9.33333 85.5499Z" transform="matrix(1 0 0 -1 363.5 466.05)"/><path d="M363.013 807.193 404.243 807.193 403.91 807.526 403.91 186.5 404.243 186.833 365.167 186.833 365.167 186.167 404.577 186.167 404.577 807.859 363.013 807.859ZM366.5 190.5 358.5 186.5 366.5 182.5Z"/><text font-family="Consolas,Consolas_MSFontService,sans-serif" font-weight="400" font-size="17" transform="translate(535.64 81)">Create RStudio project<tspan font-size="17" x="0" y="17">Create local Git repo</tspan><tspan font-size="17" x="0" y="34">Create GitHub repo</tspan><tspan font-size="17" x="0" y="108">New branch</tspan><tspan font-size="17" x="0" y="297">Stage changes</tspan><tspan font-size="17" x="0" y="387">Commit changes</tspan><tspan font-size="17" x="0" y="507">Push branch</tspan><tspan font-size="17" x="0" y="598">Merge branch into </tspan><tspan font-size="17" x="0" y="619">main branch</tspan><tspan font-size="17" x="0" y="718">Push main branch to </tspan><tspan font-size="17" x="0" y="739">GitHub</tspan></text><path d="M526.5 36.5001 526.5 848.89" stroke="#A6A6A6" stroke-width="0.666667" stroke-miterlimit="8" fill="none" fill-rule="evenodd"/></g></svg>